<?xml version="1.0" encoding="UTF-8"?>
<svg id="Calque_2" xmlns="http://www.w3.org/2000/svg" version="1.1" viewBox="0 0 488.8 174.4">
  <!-- Generator: Adobe Illustrator 30.3.0, SVG Export Plug-In . SVG Version: 2.1.3 Build 182)  -->
  <defs>
    <style>
      .st0 {
        fill: #fff;
      }
    </style>
  </defs>
  <g id="Calque_1-2">
    <g>
      <path class="st0" d="M247,162.7v-12.2h-14.3v-14.7h9.5v-12.2h-9.5v-13.9h14.3v-11.4h-29.2v64.5h29.2ZM196.7,123c0,1.8-.9,2.6-2.5,2.6h-3.9v-15.2h3.9c1.6,0,2.5.7,2.5,2.6v10ZM212.8,162.7c-.9-3.1-1.9-6.7-1.9-10.8v-12.9c0-3-2.3-5.8-6-7.5,3.8-1.7,5.7-4.4,5.7-7.5v-14c0-8.2-7.3-11.8-14.4-11.8h-20.7v64.5h14.8v-25.6h3.6c2,0,3.1,1.1,3.1,2.5v13.1c0,3.4.7,7.2,1.9,10h13.9,0ZM167.6,98.2h-14.9v64.5h14.9v-64.5ZM146.1,162.7v-12.6h-14.3v-51.8h-14.8v64.5h29.2Z"/>
      <path class="st0" d="M383.6,20.1h-29.8v11.4h12.9l-15.5,53h31.8v-12.2h-14.5l15.1-52.2h0ZM347.3,84.6v-12.2h-14.3v-14.7h9.5v-12.2h-9.5v-13.9h14.3v-11.4h-29.2v64.5h29.2ZM312.1,31.6v-11.4h-34.9v11.4h10.2v53h14.8V31.6h9.8ZM271.4,72.4V20.1h-14.3v50.3c0,1.7-1.4,2.7-3,2.7s-3.1-1.1-3.1-2.7V20.1h-15v52.2c0,6.5,7.7,13.5,18.1,13.5s17.2-6.9,17.2-13.5M214.5,70.4c0,1.7-1.4,2.7-3,2.7s-3.1-1.1-3.1-2.7v-36.1c0-1.7,1.4-2.7,3.1-2.7s3,1.1,3,2.7v36.1ZM229.4,71.5v-38.3c0-6.5-7.7-14.3-18-14.3s-18.1,7.7-18.1,14.3v38.3c0,6.5,7.7,14.3,18.1,14.3s18-7.7,18-14.3M187.9,72.4v-12.4h-14.7v10.5c0,1.7-1.4,2.7-3.1,2.7s-3.2-1.1-3.2-2.7v-36.1c0-1.7,1.4-2.7,3.2-2.7s3.1,1.1,3.1,2.7v10.5h14.7v-12.4c0-6.5-7-13.5-17.7-13.5s-18.2,6.9-18.2,13.5v40c0,6.5,7.3,13.5,18.2,13.5s17.7-6.9,17.7-13.5M146.1,84.6v-12.2h-14.3v-14.7h9.5v-12.2h-9.5v-13.9h14.3v-11.4h-29.2v64.5h29.2ZM142.1,0h-11.9l-2.1,14.8h7.6L142.1,0Z"/>
      <path class="st0" d="M0,71.8c0-15,5.1-28.5,15.4-40.3,10.2-11.9,23.4-17.8,39.4-17.8s25.5,4.1,31.9,12.4,9.5,16.7,9.5,25.5-4.1,19.5-12.2,25.2c-8.1,5.7-16.3,8.5-24.5,8.5s-8.9-.8-23.4-2.2c-3.3,0-5.7.8-7,2.4-1.3,1.6-2,3.6-2,5.9,0,7.3,2.3,15.3,7,24.2,9.3,17.6,25.8,33,49.4,46.1l-6.3,12.8c-19.1-8.4-36.8-21.8-52.9-40.3C8.1,115.5,0,94.7,0,71.8"/>
      <path class="st0" d="M488.8,71.8c0-15-5.1-28.5-15.4-40.3-10.2-11.9-23.4-17.8-39.4-17.8s-25.5,4.1-31.9,12.4-9.5,16.7-9.5,25.5,4.1,19.5,12.2,25.2c8.1,5.7,16.3,8.5,24.5,8.5s8.9-.8,23.4-2.2c3.3,0,5.7.8,7,2.4,1.3,1.6,2,3.6,2,5.9,0,7.3-2.3,15.3-7,24.2-9.3,17.6-25.8,33-49.4,46.1l6.3,12.8c19.1-8.4,36.8-21.8,52.9-40.3,16.1-18.5,24.2-39.3,24.2-62.2"/>
    </g>
  </g>
</svg>