<?xml version="1.0" encoding="UTF-8"?>
<svg id="Calque_2" data-name="Calque 2" xmlns="http://www.w3.org/2000/svg" viewBox="0 0 488.83 174.35">
  <defs>
    <style>
      .cls-1 {
        fill: #1d1d1b;
      }
    </style>
  </defs>
  <g id="Calque_1-2" data-name="Calque 1">
    <g>
      <path class="cls-1" d="M246.98,162.69v-12.25h-14.34v-14.67h9.51v-12.25h-9.51v-13.86h14.34v-11.44h-29.17v64.46h29.17ZM196.7,123.05c0,1.85-.89,2.58-2.5,2.58h-3.87v-15.15h3.87c1.61,0,2.5.73,2.5,2.58v9.99ZM212.81,162.69c-.89-3.14-1.85-6.69-1.85-10.8v-12.89c0-2.98-2.26-5.8-6.04-7.49,3.79-1.69,5.72-4.43,5.72-7.49v-14.02c0-8.22-7.33-11.76-14.42-11.76h-20.71v64.46h14.83v-25.62h3.62c2.01,0,3.06,1.13,3.06,2.5v13.13c0,3.38.73,7.17,1.85,9.99h13.94ZM167.61,98.23h-14.91v64.46h14.91v-64.46ZM146.1,162.69v-12.65h-14.34v-51.81h-14.83v64.46h29.17Z"/>
      <path class="cls-1" d="M383.65,20.14h-29.81v11.44h12.89l-15.47,53.02h31.75v-12.25h-14.5l15.15-52.21ZM347.29,84.6v-12.25h-14.34v-14.66h9.51v-12.25h-9.51v-13.86h14.34v-11.44h-29.17v64.46h29.17ZM312.07,31.59v-11.44h-34.89v11.44h10.23v53.02h14.83V31.59h9.83ZM271.36,72.36V20.14h-14.26v50.28c0,1.69-1.37,2.74-2.98,2.74-1.69,0-3.06-1.05-3.06-2.74V20.14h-14.99v52.21c0,6.53,7.74,13.46,18.05,13.46s17.24-6.93,17.24-13.46M214.46,70.42c0,1.69-1.37,2.74-2.98,2.74-1.69,0-3.06-1.05-3.06-2.74v-36.1c0-1.69,1.37-2.74,3.06-2.74s2.98,1.05,2.98,2.74v36.1ZM229.44,71.55v-38.35c0-6.53-7.74-14.26-17.97-14.26s-18.05,7.74-18.05,14.26v38.35c0,6.53,7.74,14.26,18.05,14.26s17.97-7.74,17.97-14.26M187.85,72.36v-12.41h-14.67v10.47c0,1.69-1.37,2.74-3.06,2.74-1.85,0-3.22-1.05-3.22-2.74v-36.1c0-1.69,1.37-2.74,3.22-2.74,1.69,0,3.06,1.05,3.06,2.74v10.47h14.67v-12.41c0-6.53-7.01-13.46-17.73-13.46s-18.21,6.93-18.21,13.46v39.97c0,6.53,7.33,13.46,18.21,13.46s17.73-6.93,17.73-13.46M146.1,84.6v-12.25h-14.34v-14.66h9.51v-12.25h-9.51v-13.86h14.34v-11.44h-29.17v64.46h29.17ZM142.15,0h-11.85l-2.09,14.83h7.57l6.37-14.83Z"/>
      <path class="cls-1" d="M0,71.81c0-15,5.11-28.45,15.35-40.34,10.23-11.9,23.35-17.84,39.37-17.84,14.9,0,25.52,4.12,31.86,12.35,6.34,8.23,9.51,16.73,9.51,25.5,0,11.12-4.06,19.51-12.18,25.18-8.12,5.66-16.3,8.5-24.52,8.5-1.12,0-8.9-.75-23.35-2.25-3.34,0-5.67.8-7.01,2.41-1.33,1.6-2,3.59-2,5.95,0,7.3,2.34,15.35,7.01,24.16,9.34,17.62,25.8,32.97,49.38,46.07l-6.34,12.83c-19.13-8.36-36.76-21.81-52.88-40.34C8.06,115.47,0,94.73,0,71.81"/>
      <path class="cls-1" d="M488.83,71.81c0-15-5.11-28.45-15.35-40.34-10.23-11.9-23.35-17.84-39.37-17.84-14.9,0-25.52,4.12-31.86,12.35-6.34,8.23-9.51,16.73-9.51,25.5,0,11.12,4.06,19.51,12.18,25.18,8.12,5.66,16.3,8.5,24.52,8.5,1.12,0,8.9-.75,23.35-2.25,3.34,0,5.67.8,7.01,2.41,1.33,1.6,2,3.59,2,5.95,0,7.3-2.34,15.35-7.01,24.16-9.34,17.62-25.8,32.97-49.38,46.07l6.34,12.83c19.13-8.36,36.76-21.81,52.88-40.34,16.13-18.54,24.19-39.28,24.19-62.2"/>
    </g>
  </g>
</svg>