<svg width="340" height="120" viewBox="0 0 340 120" fill="none" xmlns="http://www.w3.org/2000/svg">
<path d="M11.4539 20.6777C21.3811 9.86149 38.0912 6.02375 51.7517 11.4883C62.2537 15.6879 69.0507 29.4912 66.3338 41.0977C63.9729 51.1614 51.5046 59.4615 40.0955 58.5068C35.3837 58.1118 30.6861 57.491 25.9695 57.1807C20.7875 56.8374 18.5308 59.0665 18.9392 64.2441C19.6612 73.3393 23.7752 81.1321 29.4988 87.9746C33.4316 92.6773 37.9108 97.027 42.6463 100.944C47.2631 104.768 52.516 107.84 57.9451 111.555C56.5298 114.334 55.1624 117.033 53.6521 120C44.4422 116.181 36.524 110.914 29.2947 104.627C16.1945 93.2368 5.25993 80.3747 1.46952 62.8945C-1.91711 47.2861 0.206207 32.9284 11.4539 20.6777ZM296.275 9.48535C319.877 7.21392 339.176 23.8239 339.965 47.916C340.43 62.1607 336.241 75.1123 327.724 86.54C317.94 99.6701 305.851 110.284 291.165 117.86C290.115 118.401 289.056 118.924 287.982 119.403C287.593 119.577 287.141 119.61 286.258 119.817L286.249 119.812C284.753 116.855 283.389 114.16 282.259 111.931C289.36 106.588 296.39 101.951 302.64 96.4492C311.974 88.2242 318.989 78.334 320.908 65.6885C321.915 59.0294 319.607 56.7156 312.867 57.2705C309.186 57.5715 305.5 57.8626 301.838 58.3281C293.331 59.4004 285.93 56.6826 279.841 51.1475C277.162 48.7115 274.925 45.109 273.966 41.6338C270.446 28.8847 278.501 11.1927 296.275 9.48535ZM122.406 67.748C127.849 67.748 133.023 67.4984 138.167 67.8135C143.581 68.1475 146.331 71.3738 146.488 76.7393C146.684 83.5046 145.667 88.1041 143.434 90.5371C150.037 96.4485 144.265 104.712 148.44 111.964C145.03 111.964 142.546 112.24 140.18 111.836C139.159 111.662 137.743 110.158 137.615 109.123C137.145 105.366 137.026 101.551 137.003 97.7559C136.984 94.7511 135.72 93.8529 132.556 94.7275V111.644H122.401V67.748H122.406ZM116.183 111.747H106.532V67.8936H116.183V111.747ZM171.681 75.4131H162.173V84.6406C164.177 84.8616 166.167 85.0826 168.356 85.3271V93.1006C166.309 93.2934 164.333 93.4817 162.12 93.6934V103.673H171.677V111.709H151.936V67.9404H171.681V75.4131ZM91.5603 103.07C94.9184 103.225 97.9488 103.362 101.321 103.518V111.634H81.6287V67.8936H91.5603V103.07ZM132.68 87.2783H132.685C134.59 86.1171 136.494 85.5387 136.552 84.8193C136.765 82.1671 136.48 79.4487 136.043 76.8105C135.986 76.4767 133.934 76.4619 132.68 76.2832V87.2783ZM118.426 12.9512C125.75 12.9982 130.576 17.0476 130.719 23.3164C130.771 25.6254 130.728 27.9344 130.728 30.6572L130.719 30.6475H120.435C120.435 28.6207 120.658 26.622 120.345 24.708C120.178 23.6735 119.09 22.7897 118.421 21.8398C117.661 22.6956 116.26 23.5373 116.241 24.4072C116.07 32.1572 116.089 39.9119 116.241 47.6572C116.255 48.4896 117.48 49.304 118.14 50.127C118.905 49.2522 120.141 48.4663 120.336 47.4834C120.692 45.6682 120.435 43.735 120.435 41.5107H130.51C130.543 46.7684 132.41 52.4216 126.89 56.292C121.998 59.7203 116.683 59.8475 111.353 57.3457C107.582 55.5775 105.534 52.708 105.615 48.3203C105.767 39.9872 105.606 31.6447 105.673 23.3115C105.72 17.024 110.864 12.9042 118.426 12.9512ZM146.806 12.9463C153.836 12.8852 159.384 17.4187 159.503 23.6543C159.655 31.8324 159.655 40.0113 159.503 48.1895C159.389 54.4063 153.836 58.9771 146.84 58.9395C139.867 58.9018 134.485 54.2182 134.386 48.0107C134.319 43.9242 134.371 39.8325 134.371 35.7412V35.7363C134.371 31.7954 134.314 27.8491 134.381 23.9082C134.485 17.6396 139.777 13.0074 146.806 12.9463ZM174.522 14.0049C174.603 15.6319 174.74 17.1603 174.745 18.6934C174.764 27.9107 174.678 37.1281 174.845 46.3408C174.868 47.6059 176.085 48.8477 176.75 50.0986C177.434 48.8665 178.683 47.6388 178.707 46.3926C178.873 37.1799 178.797 27.9625 178.797 18.7451V14.127H188.824V24.5957C188.824 32.4962 188.899 40.3972 188.8 48.293C188.719 54.8343 183.997 58.9258 176.797 58.9258C169.387 58.9256 164.31 54.6597 164.286 48.2734C164.265 42.649 164.261 37.0257 164.262 31.3359L164.271 14.0049H174.522ZM101.183 21.6045H91.8269V30.8691C93.7457 31.0055 95.6076 31.1413 97.9871 31.3105V39.3389C96.0017 39.4988 94.021 39.6631 91.8123 39.8418V49.4307C94.8996 49.5859 97.9205 49.7407 101.226 49.9053V57.8906H81.4812V13.9248H101.183V21.6045ZM256.405 49.6328H266.209V57.7969H244.387C247.864 45.9224 251.313 34.1654 254.881 21.9805C251.893 21.7971 249.181 21.6277 246.26 21.4443V14.0049H266.726C263.297 25.8511 259.944 37.4292 256.405 49.6328ZM241.234 21.4727H231.844V30.7656C233.71 30.9208 235.567 31.0713 237.728 31.25V39.3291C235.962 39.4843 234.114 39.6441 231.887 39.8369V49.8252H241.224V57.7871H221.36V13.9902H241.234V21.4727ZM216.981 21.459C214.716 21.6236 212.83 21.7592 210.559 21.9238V57.7549H200V22.0039C197.492 21.7782 195.355 21.5897 193.052 21.3828V13.9482H216.981V21.459ZM146.716 21.8486C146.098 22.6904 145.001 23.5089 144.954 24.3789C144.759 28.1504 144.869 31.9408 144.864 35.7217L144.859 35.7266C144.859 39.6533 144.749 43.5895 144.944 47.5068C144.987 48.3863 146.079 49.2191 146.692 50.0703C147.466 49.2239 148.887 48.3867 148.906 47.5215C149.082 39.8136 149.086 32.1004 148.915 24.3926C148.895 23.5274 147.48 22.695 146.716 21.8486ZM98.2059 0C96.0257 9.21258 94.8708 10.4724 89.1473 9.4707C89.6317 6.20722 90.0737 3.19766 90.5486 0H98.2059Z" fill="white"/>
</svg>
